HIERARCHY
ROOT Hips
{
    OFFSET   0.000000   0.000000   0.000000
    CHANNELS 6 Xposition Yposition Zposition Zrotation Xrotation Yrotation
    JOINT Chest
    {
        OFFSET   0.000000   8.007230   0.000000
        CHANNELS 3 Zrotation Xrotation Yrotation
        JOINT Chest2
        {
            OFFSET   0.000000  22.077100   0.000000
            CHANNELS 3 Zrotation Xrotation Yrotation
            JOINT Neck
            {
                OFFSET   0.000000  23.254800   0.000000
                CHANNELS 3 Zrotation Xrotation Yrotation
                JOINT Head
                {
                    OFFSET   0.000010  14.370000   1.956600
                    CHANNELS 3 Zrotation Xrotation Yrotation
                    End Site
                    {
                        OFFSET   0.000000  19.566000   0.000000
                    }
                }
            }
            JOINT LeftCollar
            {
                OFFSET   3.911900  19.017000  -0.467062
                CHANNELS 3 Zrotation Xrotation Yrotation
                JOINT LeftShoulder
                {
                    OFFSET  10.383700   0.000000   0.000000
                    CHANNELS 3 Zrotation Xrotation Yrotation
                    JOINT LeftElbow
                    {
                        OFFSET  26.662100   0.001193   0.000835
                        CHANNELS 3 Zrotation Xrotation Yrotation
                        JOINT LeftWrist
                        {
                            OFFSET  28.869000  -0.000058  -0.000075
                            CHANNELS 3 Zrotation Xrotation Yrotation
                            JOINT LeftFinger0
                            {
                                OFFSET   2.044660  -2.323460   3.252850
                                CHANNELS 3 Zrotation Xrotation Yrotation
                                JOINT LeftFinger01
                                {
                                    OFFSET   3.088130   0.000000   0.000000
                                    CHANNELS 3 Zrotation Xrotation Yrotation
                                    JOINT LeftFinger02
                                    {
                                        OFFSET   2.639450   0.000000   0.000000
                                        CHANNELS 3 Zrotation Xrotation Yrotation
                                        End Site
                                        {
                                            OFFSET   2.582190   0.000000   0.000000
                                        }
                                    }
                                }
                            }
                            JOINT LeftFinger1
                            {
                                OFFSET   8.364480   0.000000   3.252850
                                CHANNELS 3 Zrotation Xrotation Yrotation
                                JOINT LeftFinger11
                                {
                                    OFFSET   4.646920   0.000000   0.000000
                                    CHANNELS 3 Zrotation Xrotation Yrotation
                                    JOINT LeftFinger12
                                    {
                                        OFFSET   2.323460   0.000000   0.000000
                                        CHANNELS 3 Zrotation Xrotation Yrotation
                                        End Site
                                        {
                                            OFFSET   2.273050   0.000000   0.000000
                                        }
                                    }
                                }
                            }
                            JOINT LeftFinger2
                            {
                                OFFSET   8.364490   0.000016   1.078090
                                CHANNELS 3 Zrotation Xrotation Yrotation
                                JOINT LeftFinger21
                                {
                                    OFFSET   5.111620   0.000000   0.000000
                                    CHANNELS 3 Zrotation Xrotation Yrotation
                                    JOINT LeftFinger22
                                    {
                                        OFFSET   2.788150   0.000012   0.000000
                                        CHANNELS 3 Zrotation Xrotation Yrotation
                                        End Site
                                        {
                                            OFFSET   2.727660   0.000000   0.000000
                                        }
                                    }
                                }
                            }
                            JOINT LeftFinger3
                            {
                                OFFSET   7.899780   0.000014  -1.078090
                                CHANNELS 3 Zrotation Xrotation Yrotation
                                JOINT LeftFinger31
                                {
                                    OFFSET   4.646930   0.000000   0.000000
                                    CHANNELS 3 Zrotation Xrotation Yrotation
                                    JOINT LeftFinger32
                                    {
                                        OFFSET   2.323470   0.000000   0.000000
                                        CHANNELS 3 Zrotation Xrotation Yrotation
                                        End Site
                                        {
                                            OFFSET   2.273050   0.000000   0.000000
                                        }
                                    }
                                }
                            }
                            JOINT LeftFinger4
                            {
                                OFFSET   7.435090   0.000000  -3.252850
                                CHANNELS 3 Zrotation Xrotation Yrotation
                                JOINT LeftFinger41
                                {
                                    OFFSET   3.717550   0.000000   0.000000
                                    CHANNELS 3 Zrotation Xrotation Yrotation
                                    JOINT LeftFinger42
                                    {
                                        OFFSET   1.858770   0.000000   0.000000
                                        CHANNELS 3 Zrotation Xrotation Yrotation
                                        End Site
                                        {
                                            OFFSET   1.818440   0.000000   0.000000
                                        }
                                    }
                                }
                            }
                        }
                    }
                }
            }
            JOINT RightCollar
            {
                OFFSET  -3.911900  19.017000  -0.467063
                CHANNELS 3 Zrotation Xrotation Yrotation
                JOINT RightShoulder
                {
                    OFFSET -10.383700   0.000023   0.000000
                    CHANNELS 3 Zrotation Xrotation Yrotation
                    JOINT RightElbow
                    {
                        OFFSET -26.662100   0.001246   0.001011
                        CHANNELS 3 Zrotation Xrotation Yrotation
                        JOINT RightWrist
                        {
                            OFFSET -28.869000  -0.000026  -0.000078
                            CHANNELS 3 Zrotation Xrotation Yrotation
                            JOINT RightFinger0
                            {
                                OFFSET  -2.044660  -2.323490   3.252850
                                CHANNELS 3 Zrotation Xrotation Yrotation
                                JOINT RightFinger01
                                {
                                    OFFSET  -3.088130   0.000000   0.000000
                                    CHANNELS 3 Zrotation Xrotation Yrotation
                                    JOINT RightFinger02
                                    {
                                        OFFSET  -2.639460   0.000000   0.000000
                                        CHANNELS 3 Zrotation Xrotation Yrotation
                                        End Site
                                        {
                                            OFFSET  -2.582190   0.000000   0.000000
                                        }
                                    }
                                }
                            }
                            JOINT RightFinger1
                            {
                                OFFSET  -8.364480   0.000000   3.252850
                                CHANNELS 3 Zrotation Xrotation Yrotation
                                JOINT RightFinger11
                                {
                                    OFFSET  -4.646920   0.000000   0.000000
                                    CHANNELS 3 Zrotation Xrotation Yrotation
                                    JOINT RightFinger12
                                    {
                                        OFFSET  -2.323470   0.000000   0.000000
                                        CHANNELS 3 Zrotation Xrotation Yrotation
                                        End Site
                                        {
                                            OFFSET  -2.273050   0.000000   0.000000
                                        }
                                    }
                                }
                            }
                            JOINT RightFinger2
                            {
                                OFFSET  -8.364480   0.000000   1.078090
                                CHANNELS 3 Zrotation Xrotation Yrotation
                                JOINT RightFinger21
                                {
                                    OFFSET  -5.111620   0.000000   0.000000
                                    CHANNELS 3 Zrotation Xrotation Yrotation
                                    JOINT RightFinger22
                                    {
                                        OFFSET  -2.788160   0.000000   0.000000
                                        CHANNELS 3 Zrotation Xrotation Yrotation
                                        End Site
                                        {
                                            OFFSET  -2.727660   0.000000   0.000000
                                        }
                                    }
                                }
                            }
                            JOINT RightFinger3
                            {
                                OFFSET  -7.899780   0.000000  -1.078090
                                CHANNELS 3 Zrotation Xrotation Yrotation
                                JOINT RightFinger31
                                {
                                    OFFSET  -4.646930   0.000000   0.000000
                                    CHANNELS 3 Zrotation Xrotation Yrotation
                                    JOINT RightFinger32
                                    {
                                        OFFSET  -2.323470   0.000000   0.000000
                                        CHANNELS 3 Zrotation Xrotation Yrotation
                                        End Site
                                        {
                                            OFFSET  -2.273050   0.000000   0.000000
                                        }
                                    }
                                }
                            }
                            JOINT RightFinger4
                            {
                                OFFSET  -7.435090   0.000000  -3.252850
                                CHANNELS 3 Zrotation Xrotation Yrotation
                                JOINT RightFinger41
                                {
                                    OFFSET  -3.717550   0.000000   0.000000
                                    CHANNELS 3 Zrotation Xrotation Yrotation
                                    JOINT RightFinger42
                                    {
                                        OFFSET  -1.858760   0.000000   0.000000
                                        CHANNELS 3 Zrotation Xrotation Yrotation
                                        End Site
                                        {
                                            OFFSET  -1.818440   0.000000   0.000000
                                        }
                                    }
                                }
                            }
                        }
                    }
                }
            }
        }
    }
    JOINT LeftHip
    {
        OFFSET   9.783010   0.000000   0.000000
        CHANNELS 3 Zrotation Xrotation Yrotation
        JOINT LeftKnee
        {
            OFFSET   0.000073 -41.789100   0.001749
            CHANNELS 3 Zrotation Xrotation Yrotation
            JOINT LeftAnkle
            {
                OFFSET   0.000111 -41.133200  -0.000179
                CHANNELS 3 Zrotation Xrotation Yrotation
                JOINT LeftToe
                {
                    OFFSET   0.000000  -6.358960  14.674500
                    CHANNELS 3 Zrotation Xrotation Yrotation
                    End Site
                    {
                        OFFSET   0.000000   0.000000   3.913200
                    }
                }
            }
        }
    }
    JOINT RightHip
    {
        OFFSET  -9.783010   0.000000   0.000000
        CHANNELS 3 Zrotation Xrotation Yrotation
        JOINT RightKnee
        {
            OFFSET   0.000424 -41.789200   0.005205
            CHANNELS 3 Zrotation Xrotation Yrotation
            JOINT RightAnkle
            {
                OFFSET   0.000000 -41.133200  -0.000155
                CHANNELS 3 Zrotation Xrotation Yrotation
                JOINT RightToe
                {
                    OFFSET   0.000000  -6.358960  14.674500
                    CHANNELS 3 Zrotation Xrotation Yrotation
                    End Site
                    {
                        OFFSET   0.000000   0.000000   3.913200
                    }
                }
            }
        }
    }
}
MOTION
Frames: 5
Frame Time:   0.016667
 -0.270096  89.519300   1.167930  -2.723470  -5.988580  -2.470750   1.134500   2.932170   0.449099   2.250360   5.872590   0.841553   1.108410   0.953020  -0.021669   1.823850   1.930070  -1.363790  -4.761390  -1.594040  -0.174161 -75.461900  17.812700   1.933080  -0.942324  -4.743220 -15.064200  16.315900 -17.400400   7.464240  35.140600  27.880900 -60.562700 -33.988900   0.002476   0.001685 -11.995600   0.000826   0.006161 -32.739000   5.831500  -8.979990 -27.161500  -0.003031   0.012429 -19.022200  -0.004180   0.003761 -28.608100  -0.422216   0.773898 -37.630800   0.003439   0.011537 -25.074100  -0.011476  -0.002332 -28.394700  -0.419223   0.775532 -35.064600   0.003732  -0.004587 -23.353000   0.003606   0.003107 -31.464700  -0.460193   0.751945 -47.201600   0.004894   0.004935 -31.436200   0.003946   0.000713   8.062130   0.014249   4.410020  72.214700   6.542650  -6.219170  -1.196430  -4.961550   9.513880 -13.174300  -8.209210  -1.184440 -38.560900  30.951100  69.678700  26.951000   0.002916  -0.002944   8.475480   0.000272  -0.001605  29.220800   6.271990  11.051400  24.404800   0.000238   0.001026  17.083400  -0.001951   0.000560  28.019600   2.684880   5.031120  32.923900  -0.007192   0.003923  21.927300  -0.002951   0.001840  27.176300  -0.195417  -0.380614  27.723800  -0.008046   0.002588  18.473400  -0.003981   0.002070  33.874700  -0.238484  -0.355222  50.813100  -0.003462   0.005108  33.841500  -0.001004   0.003426   2.872170   8.948160   3.369890   1.195230   0.296343   8.675840  -2.472520  -3.711090   1.732490  -0.000000   0.000000   0.000000   1.910240   8.784220  -5.736480   0.149827   0.648229  -9.717960  -0.498629  -3.952050   1.779440  -0.000000   0.000000   0.000000
 -0.263349  89.519200   1.161030  -2.723870  -6.001570  -2.471420   1.137950   2.942420   0.449058   2.257200   5.893110   0.841347   1.112530   0.961381  -0.021656   1.830070   1.947350  -1.364480  -4.761440  -1.606870  -0.174177 -75.465600  17.832700   1.942940  -0.952785  -4.738900 -15.069500  16.305300 -17.390200   7.453910  35.134400  27.882700 -60.564500 -33.994700   0.002476   0.001680 -11.998000   0.000834   0.006164 -32.744500   5.831840  -8.979550 -27.165800  -0.003030   0.012430 -19.021900  -0.004179   0.003759 -28.608000  -0.425129   0.779213 -37.637700   0.003439   0.011538 -25.074100  -0.011478  -0.002332 -28.394600  -0.422129   0.780856 -35.075900   0.003732  -0.004589 -23.360600   0.003606   0.003106 -31.467800  -0.463414   0.757086 -47.206100   0.004893   0.004937 -31.439300   0.003947   0.000714   8.080070  -0.036869   4.412790  72.201400   6.614440  -6.194950  -1.191100  -4.995760   9.481520 -13.157700  -8.152970  -1.163270 -38.555800  30.959900  69.674000  26.986100   0.002925  -0.002946   8.493030   0.000271  -0.001604  29.237500   6.256870  11.019700  24.415700   0.000250   0.001026  17.091000  -0.001956   0.000560  28.021600   2.672740   5.007950  32.934500  -0.007189   0.003911  21.934400  -0.002949   0.001829  27.176400  -0.205100  -0.399493  27.728500  -0.008044   0.002589  18.473600  -0.003979   0.002069  33.870600  -0.250265  -0.372871  50.807100  -0.003459   0.005108  33.837500  -0.001004   0.003424   2.866850   8.949120   3.361970   1.194800   0.313468   8.679290  -2.473910  -3.710640   1.732330  -0.000000   0.000000  -0.000000   1.901380   8.783680  -5.736130   0.150152   0.669139  -9.717840  -0.496949  -3.960630   1.780120  -0.000000   0.000000   0.000000
 -0.252821  89.519100   1.148190  -2.725160  -6.026060  -2.475820   1.144440   2.962920   0.448745   2.270140   5.934140   0.839753   1.119720   0.974324  -0.021624   1.841250   1.973860  -1.365180  -4.761560  -1.633760  -0.174194 -75.472000  17.869100   1.959910  -0.971194  -4.731920 -15.078500  16.286700 -17.376900   7.439730  35.122700  27.885300 -60.566900 -34.006600   0.002476   0.001676 -12.003300   0.000848   0.006172 -32.753000   5.832230  -8.976380 -27.172800  -0.003028   0.012436 -19.021500  -0.004176   0.003757 -28.607700  -0.435062   0.797386 -37.648800   0.003440   0.011544 -25.074100  -0.011484  -0.002332 -28.394300  -0.432009   0.799064 -35.092200   0.003733  -0.004593 -23.371400   0.003607   0.003103 -31.470600  -0.474260   0.774735 -47.210700   0.004892   0.004940 -31.442300   0.003948   0.000715   8.111730  -0.128776   4.422660  72.178300   6.785830  -6.116530  -1.181670  -5.067780   9.394880 -13.123100  -8.049760  -1.141960 -38.542900  30.981400  69.675000  27.021200   0.002938  -0.002960   8.510580   0.000270  -0.001596  29.264800   6.238860  10.975400  24.434800   0.000279   0.001025  17.104300  -0.001968   0.000560  28.024300   2.656130   4.976200  32.950800  -0.007180   0.003882  21.945200  -0.002944   0.001801  27.176500  -0.214782  -0.418373  27.733200  -0.008036   0.002592  18.473900  -0.003974   0.002068  33.864300  -0.262047  -0.390521  50.797800  -0.003449   0.005111  33.831300  -0.001004   0.003419   2.858010   8.955420   3.354090   1.194340   0.330589   8.686630  -2.475380  -3.707500   1.732170  -0.000000   0.000000   0.000000   1.888750   8.783170  -5.733730   0.150753   0.691654  -9.717730  -0.494993  -3.969190   1.784780   0.000000   0.000000   0.000000
 -0.245934  89.519700   1.134970  -2.728350  -6.049740  -2.490720   1.150720   2.985620   0.447186   2.282720   5.979570   0.835615   1.126230   0.982037  -0.021565   1.851940   1.988930  -1.362660  -4.764520  -1.666960  -0.166524 -75.481100  17.898100   1.975340  -0.988423  -4.725620 -15.086600  16.271400 -17.374500   7.436560  35.117900  27.884000 -60.569800 -34.022800   0.002475   0.001676 -12.011100   0.000863   0.006187 -32.760700   5.818350  -8.951040 -27.177200  -0.003031   0.012444 -19.023400  -0.004174   0.003759 -28.607000  -0.460226   0.843507 -37.656100   0.003441   0.011557 -25.077500  -0.011495  -0.002332 -28.393500  -0.456996   0.845276 -35.097800   0.003735  -0.004596 -23.375100   0.003610   0.003100 -31.461800  -0.501541   0.819629 -47.198100   0.004892   0.004945 -31.433900   0.003950   0.000716   8.141950  -0.221794   4.436700  72.158900   7.014330  -5.983300  -1.170030  -5.162030   9.258850 -13.082900  -7.936330  -1.152740 -38.560700  31.031000  69.714300  27.017800   0.002950  -0.002998   8.508880   0.000280  -0.001579  29.288400   6.235580  10.956200  24.454000   0.000316   0.001026  17.117800  -0.001981   0.000560  28.025000   2.650390   4.964990  32.962600  -0.007170   0.003839  21.953100  -0.002935   0.001758  27.176400  -0.213922  -0.416715  27.732900  -0.008024   0.002597  18.473300  -0.003965   0.002066  33.862200  -0.260993  -0.388987  50.794700  -0.003435   0.005118  33.829300  -0.001004   0.003410   2.848600   8.990720   3.361190   1.196180   0.288660   8.695850  -2.472780  -3.675140   1.732800   0.000000   0.000000   0.000000   1.883740   8.795420  -5.726040   0.153108   0.692721  -9.719350  -0.494893  -3.963120   1.796400  -0.000000   0.000000   0.000000
 -0.239858  89.521000   1.120470  -2.736600  -6.080520  -2.518960   1.159140   3.014210   0.442411   2.299700   6.036710   0.825290   1.132980   0.989677  -0.021525   1.863130   2.003860  -1.354810  -4.770490  -1.706540  -0.145784 -75.493300  17.944100   1.989960  -1.005920  -4.721940 -15.093600  16.250800 -17.372800   7.433250  35.101000  27.880700 -60.576100 -34.037600   0.002474   0.001679 -12.018800   0.000878   0.006208 -32.770700   5.804420  -8.928420 -27.183500  -0.003033   0.012458 -19.028400  -0.004173   0.003761 -28.606500  -0.478371   0.876769 -37.665200   0.003442   0.011573 -25.085000  -0.011511  -0.002332 -28.392900  -0.475010   0.878604 -35.103800   0.003738  -0.004598 -23.379100   0.003614   0.003094 -31.452600  -0.521196   0.852016 -47.184700   0.004893   0.004952 -31.425000   0.003952   0.000718   8.171970  -0.312052   4.466890  72.133000   7.339630  -5.785330  -1.164480  -5.263980   9.079540 -13.029600  -7.833470  -1.181130 -38.607600  31.087500  69.780200  26.995900   0.002960  -0.003043   8.497940   0.000295  -0.001559  29.308700   6.235190  10.949600  24.469400   0.000363   0.001026  17.128600  -0.002000   0.000559  28.025000   2.649120   4.962380  32.968800  -0.007154   0.003787  21.957200  -0.002923   0.001706  27.176100  -0.207899  -0.405111  27.731000  -0.008009   0.002604  18.468900  -0.003954   0.002064  33.856700  -0.253615  -0.378256  50.786600  -0.003416   0.005126  33.823900  -0.001004   0.003399   2.840490   9.042040   3.374320   1.195590   0.246731   8.706910  -2.470010  -3.639080   1.737610   0.000000   0.000000   0.000000   1.882130   8.816130  -5.712640   0.155463   0.693787  -9.720980  -0.495320  -3.957050   1.811910  -0.000000   0.000000  -0.000000
